<?xml version="1.0" standalone="no"?>
<!DOCTYPE svg PUBLIC "-//W3C//DTD SVG 20010904//EN"
 "http://www.w3.org/TR/2001/REC-SVG-20010904/DTD/svg10.dtd">
<svg version="1.0" xmlns="http://www.w3.org/2000/svg"
 width="1250.000000pt" height="1250.000000pt" viewBox="0 0 1250.000000 1250.000000"
 preserveAspectRatio="xMidYMid meet">
<metadata>
Created by potrace 1.16, written by Peter Selinger 2001-2019
</metadata>
<g transform="translate(0.000000,1250.000000) scale(0.100000,-0.100000)"
fill="#000000" stroke="none">
<path d="M5856 11000 c-113 -14 -257 -48 -381 -90 l-117 -39 -86 19 c-311 67
-623 48 -939 -60 -48 -16 -139 -39 -202 -50 -508 -91 -878 -283 -1035 -536
-32 -52 -45 -65 -84 -79 -26 -10 -113 -51 -195 -93 -459 -233 -802 -551 -983
-912 -84 -168 -123 -297 -145 -480 l-11 -95 -107 -110 c-58 -61 -135 -151
-169 -200 -76 -107 -163 -281 -193 -385 -26 -92 -37 -309 -20 -389 l11 -53
-65 -70 c-180 -195 -285 -443 -285 -675 0 -63 6 -130 16 -167 21 -84 76 -181
136 -243 28 -28 48 -56 44 -61 -3 -6 -11 -56 -16 -112 -19 -179 9 -343 85
-495 129 -261 377 -423 715 -468 l93 -12 -41 -27 c-61 -41 -162 -149 -205
-220 -77 -128 -100 -289 -63 -443 24 -99 113 -274 193 -380 445 -592 1504
-1115 2259 -1115 l142 0 7 -56 c13 -103 -17 -470 -56 -687 -41 -233 -119 -488
-195 -639 -19 -37 -34 -70 -34 -73 0 -8 172 109 295 201 288 215 583 506 750
739 259 362 444 894 421 1213 l-7 92 34 0 c115 0 341 92 448 182 104 87 191
232 224 374 9 38 18 74 20 81 2 6 45 -16 100 -53 106 -69 252 -131 380 -160
59 -14 116 -19 220 -18 157 2 248 20 354 73 l61 30 74 -35 c113 -54 241 -77
426 -77 399 -1 719 137 887 383 44 65 116 213 146 301 75 217 70 408 -15 598
-15 35 -28 67 -28 71 0 3 35 0 78 -7 98 -17 207 -5 330 38 124 44 119 44 205
4 405 -187 902 -226 1283 -99 191 64 391 191 548 350 203 207 321 442 345 692
8 82 15 107 46 164 20 37 48 111 62 165 26 93 27 111 27 338 1 258 -11 359
-69 572 -117 436 -358 792 -617 911 -43 19 -58 31 -58 47 0 11 -12 44 -26 74
-48 106 -147 226 -289 353 -318 284 -702 493 -977 530 l-87 12 -58 85 c-74
109 -223 265 -333 347 -104 78 -275 165 -391 198 -47 13 -133 30 -190 37
l-104 12 -80 74 c-360 336 -974 526 -1567 484 -152 -10 -181 -10 -205 2 -55
29 -233 86 -315 102 -99 19 -326 27 -422 15z"/>
</g>
</svg>
