<?xml version="1.0" standalone="no"?>
<!DOCTYPE svg PUBLIC "-//W3C//DTD SVG 20010904//EN"
 "http://www.w3.org/TR/2001/REC-SVG-20010904/DTD/svg10.dtd">
<svg version="1.0" xmlns="http://www.w3.org/2000/svg"
 width="1250.000000pt" height="1250.000000pt" viewBox="0 0 1250.000000 1250.000000"
 preserveAspectRatio="xMidYMid meet">
<metadata>
Created by potrace 1.16, written by Peter Selinger 2001-2019
</metadata>
<g transform="translate(0.000000,1250.000000) scale(0.100000,-0.100000)"
fill="#000000" stroke="none">
<path d="M6110 11538 c-135 -172 -330 -421 -435 -554 -104 -133 -422 -535
-705 -895 -283 -359 -567 -719 -630 -799 -124 -158 -335 -426 -608 -773 -95
-120 -172 -221 -172 -225 0 -4 42 -35 93 -68 50 -34 153 -104 227 -155 235
-161 1738 -1188 1905 -1302 88 -60 202 -137 254 -173 51 -35 97 -64 101 -64 4
0 14 17 22 38 8 20 154 375 323 787 169 413 347 847 395 965 49 118 229 557
400 975 171 418 325 794 342 836 l30 76 -263 334 c-144 184 -304 386 -354 449
-50 63 -190 241 -311 395 -265 338 -366 465 -368 465 0 0 -111 -141 -246 -312z"/>
<path d="M8598 9797 c-53 -111 -399 -827 -768 -1592 -370 -764 -683 -1413
-696 -1442 l-23 -51 117 -90 c64 -50 151 -117 192 -149 41 -33 440 -342 885
-688 446 -346 963 -748 1149 -893 276 -214 341 -261 352 -250 6 7 110 124 231
259 385 434 863 969 1028 1153 88 98 170 191 183 207 l23 29 -44 62 c-72 105
-1173 1694 -1861 2688 -356 514 -653 940 -659 947 -9 10 -34 -33 -109 -190z"/>
<path d="M2679 7842 c-13 -16 -202 -229 -420 -473 -341 -382 -971 -1089 -1016
-1141 -13 -15 9 -51 229 -367 133 -193 279 -404 324 -469 44 -64 178 -256 296
-427 118 -170 531 -767 918 -1325 386 -558 723 -1043 748 -1078 l45 -64 37 79
c20 43 135 281 255 528 404 836 787 1629 835 1730 27 55 141 291 254 524 l205
424 -77 61 c-43 34 -295 230 -561 436 -266 206 -527 409 -580 451 -72 57
-1391 1081 -1457 1131 -8 6 -20 -1 -35 -20z"/>
<path d="M6275 5938 c-7 -18 -106 -260 -220 -538 -114 -278 -324 -791 -467
-1140 -143 -349 -376 -918 -518 -1265 -142 -346 -265 -646 -273 -665 l-15 -36
52 -64 c28 -36 166 -211 307 -390 140 -179 325 -413 409 -520 286 -362 351
-445 438 -557 48 -61 90 -109 93 -107 6 3 126 155 509 643 42 53 244 310 450
571 206 261 550 698 764 970 214 272 536 681 715 908 179 227 334 424 343 436
l18 23 -745 509 c-410 280 -841 574 -957 654 -117 80 -363 248 -545 373 -183
125 -335 227 -338 227 -3 0 -12 -15 -20 -32z"/>
</g>
</svg>
