<?xml version="1.0" standalone="no"?>
<!DOCTYPE svg PUBLIC "-//W3C//DTD SVG 20010904//EN"
 "http://www.w3.org/TR/2001/REC-SVG-20010904/DTD/svg10.dtd">
<svg version="1.0" xmlns="http://www.w3.org/2000/svg"
 width="1250.000000pt" height="1250.000000pt" viewBox="0 0 1250.000000 1250.000000"
 preserveAspectRatio="xMidYMid meet">

<g transform="translate(0.000000,1250.000000) scale(0.100000,-0.100000)"
fill="#000000" stroke="none">
<path d="M9998 9108 c-52 -8 -1225 -341 -1234 -350 -4 -5 286 -1040 295 -1051
4 -4 218 54 477 128 258 75 510 147 560 162 97 28 136 26 153 -6 9 -16 108
-353 310 -1057 34 -116 61 -218 61 -226 0 -49 -19 -56 -599 -224 -310 -89
-565 -164 -567 -167 -2 -2 46 -181 106 -398 61 -217 127 -452 147 -524 20 -71
38 -131 39 -133 4 -6 1151 327 1224 354 348 131 619 438 716 811 35 133 44
348 20 478 -10 50 -59 236 -111 415 -324 1123 -309 1076 -371 1189 -75 137
-208 288 -339 386 -129 96 -328 181 -494 210 -92 16 -302 18 -393 3z"/>
<path d="M7380 8364 c-879 -251 -1296 -370 -3820 -1089 -2176 -620 -2536 -724
-2574 -740 -61 -26 -140 -107 -172 -178 -25 -54 -29 -74 -29 -152 0 -87 8
-118 269 -1050 l270 -960 800 -407 c441 -223 802 -403 803 -400 1 4 -74 266
-167 582 -93 316 -167 576 -165 578 2 2 367 -179 811 -403 444 -224 805 -401
802 -394 -17 44 -329 1171 -326 1174 2 3 85 -37 184 -88 98 -52 287 -149 419
-217 132 -68 408 -210 614 -317 205 -106 376 -192 378 -189 3 2 -72 276 -165
608 -93 331 -168 605 -166 606 2 4 224 -114 589 -311 72 -38 157 -84 190 -102
33 -18 161 -86 285 -153 124 -66 297 -159 385 -206 87 -47 160 -84 162 -83 2
2 -122 453 -277 1007 -27 96 -48 176 -46 177 2 2 41 -16 87 -41 508 -266 1502
-777 1506 -773 3 3 -67 266 -155 584 -88 318 -158 580 -156 582 1 1 110 -52
241 -119 131 -67 328 -169 438 -225 110 -57 359 -185 553 -285 195 -100 356
-180 358 -178 2 2 -99 364 -225 804 -125 439 -344 1210 -487 1711 -197 695
-263 912 -274 912 -8 0 -431 -119 -940 -265z"/>
</g>
</svg>
