<?xml version="1.0" standalone="no"?>
<!DOCTYPE svg PUBLIC "-//W3C//DTD SVG 20010904//EN"
 "http://www.w3.org/TR/2001/REC-SVG-20010904/DTD/svg10.dtd">
<svg version="1.0" xmlns="http://www.w3.org/2000/svg"
 width="1250.000000pt" height="1250.000000pt" viewBox="0 0 1250.000000 1250.000000"
 preserveAspectRatio="xMidYMid meet">

<g transform="translate(0.000000,1250.000000) scale(0.100000,-0.100000)"
fill="#000000" stroke="none">
<path d="M5910 11814 c-455 -38 -858 -159 -1175 -354 -318 -195 -595 -492
-773 -830 -77 -145 -127 -270 -222 -555 -48 -143 -99 -286 -114 -317 -67 -146
-60 -271 39 -653 20 -77 37 -168 38 -202 2 -75 -6 -86 -168 -207 -113 -85
-178 -148 -189 -184 -10 -31 31 -104 174 -312 159 -229 227 -339 257 -410 28
-68 30 -159 7 -374 -21 -202 -15 -470 14 -574 11 -40 22 -75 24 -77 1 -2 75
62 163 142 88 79 245 215 349 301 244 202 346 291 353 308 3 7 -17 47 -45 88
-89 132 -92 214 -15 406 89 223 198 415 248 438 32 15 138 15 225 2 205 -33
550 -146 662 -217 40 -25 41 -25 35 -74 -3 -27 -21 -78 -39 -112 -49 -93 -258
-297 -563 -547 -143 -118 -305 -252 -360 -299 -1033 -885 -1345 -1189 -1320
-1288 7 -27 101 -240 185 -418 651 -1376 965 -2133 996 -2400 13 -107 -72
-487 -213 -957 l-56 -187 79 -103 c120 -159 192 -245 279 -337 143 -150 188
-170 244 -106 56 64 40 138 -109 510 -114 283 -128 331 -110 386 19 58 119
220 241 394 57 81 109 155 115 164 9 12 0 90 -41 338 -29 177 -58 344 -65 372
-7 30 -44 102 -91 178 -43 70 -93 162 -110 203 -52 124 -719 1951 -719 1968 0
14 682 464 690 455 4 -4 28 -36 54 -70 69 -92 182 -204 254 -252 36 -24 68
-54 74 -69 29 -75 -15 -308 -118 -623 -106 -326 -106 -329 -93 -374 15 -52 78
-193 344 -775 324 -708 435 -974 435 -1044 0 -11 -47 -194 -104 -406 -205
-756 -266 -1013 -266 -1112 0 -72 33 -125 167 -271 191 -210 190 -207 227
-353 44 -168 70 -240 104 -288 40 -58 55 -64 97 -42 74 40 103 176 71 334 -19
91 -79 248 -124 320 -16 26 -55 87 -86 136 -89 141 -104 225 -67 361 11 39 64
187 119 330 158 414 219 617 242 807 23 192 -16 315 -340 1098 -209 505 -242
593 -248 671 -11 152 149 955 223 1114 59 128 234 376 280 397 35 16 77 -5
130 -64 l45 -50 45 50 c55 61 104 82 140 58 48 -32 211 -268 269 -390 65 -136
226 -913 226 -1087 0 -77 -26 -154 -171 -506 -413 -1002 -442 -1092 -418
-1293 21 -183 85 -397 241 -805 112 -293 130 -351 136 -426 6 -88 -16 -157
-86 -268 -102 -160 -141 -236 -177 -345 -67 -198 -59 -356 21 -426 19 -16 43
-30 52 -30 21 0 64 43 84 85 23 46 65 180 88 280 25 108 40 132 160 261 195
208 230 261 230 343 0 93 -71 394 -240 1016 -119 437 -130 481 -130 508 0 65
116 339 465 1102 291 636 329 726 320 763 -3 15 -38 126 -77 247 -124 388
-171 618 -140 697 6 15 38 45 74 69 90 61 215 191 314 327 4 6 684 -451 684
-460 0 -15 -595 -1648 -693 -1905 -44 -114 -59 -143 -141 -273 -37 -58 -73
-127 -81 -155 -14 -47 -112 -630 -117 -693 -1 -20 11 -45 43 -88 137 -178 302
-441 320 -507 14 -54 -5 -120 -110 -382 -150 -371 -166 -446 -110 -510 35 -39
69 -45 109 -19 76 51 253 249 414 463 l78 103 -56 187 c-107 357 -182 664
-207 842 -14 102 -5 166 45 327 119 376 339 890 871 2027 195 418 265 574 265
594 0 44 -109 178 -276 341 -313 303 -917 828 -1406 1221 -427 344 -541 459
-589 593 -28 80 -25 120 9 144 94 66 464 188 672 222 94 14 196 13 229 -5 47
-24 144 -192 230 -400 96 -229 93 -310 -13 -459 l-46 -64 59 -55 c32 -29 94
-83 137 -118 149 -121 449 -378 564 -483 l115 -105 12 29 c43 102 55 376 27
642 -9 84 -14 191 -12 238 4 109 28 160 186 394 281 415 282 417 259 462 -21
40 -84 97 -202 186 -142 107 -150 117 -149 186 0 32 21 139 46 242 67 269 71
294 72 415 1 100 -2 116 -28 175 -16 36 -73 195 -127 353 -54 158 -123 341
-153 407 -333 738 -968 1189 -1837 1306 -91 12 -216 17 -469 19 -190 1 -365 1
-390 -1z m406 -4179 c86 -36 240 -224 317 -387 44 -92 77 -199 77 -248 0 -74
-82 -152 -205 -194 -52 -18 -85 -20 -255 -20 -177 0 -201 2 -260 23 -84 29
-133 62 -170 113 -36 50 -38 89 -9 184 47 155 164 347 274 453 93 89 152 109
231 76z"/>
</g>
</svg>
