<?xml version="1.0" standalone="no"?>
<!DOCTYPE svg PUBLIC "-//W3C//DTD SVG 20010904//EN"
 "http://www.w3.org/TR/2001/REC-SVG-20010904/DTD/svg10.dtd">
<svg version="1.0" xmlns="http://www.w3.org/2000/svg"
 width="1250.000000pt" height="1250.000000pt" viewBox="0 0 1250.000000 1250.000000"
 preserveAspectRatio="xMidYMid meet">
<metadata>
Created by potrace 1.16, written by Peter Selinger 2001-2019
</metadata>
<g transform="translate(0.000000,1250.000000) scale(0.100000,-0.100000)"
fill="#000000" stroke="none">
<path d="M6050 10779 c-927 -65 -1789 -403 -2524 -988 -152 -120 -158 -132
-40 -73 821 411 1833 502 2739 247 1065 -300 1960 -1053 2435 -2050 193 -404
312 -828 362 -1295 29 -269 12 -733 -38 -1020 -212 -1225 -997 -2273 -2109
-2815 -423 -206 -819 -320 -1310 -377 -168 -19 -637 -16 -815 6 -458 55 -881
179 -1274 372 l-91 45 41 -38 c111 -103 351 -279 538 -395 595 -370 1218 -584
1938 -665 212 -24 712 -24 926 0 1061 119 1993 561 2733 1297 777 773 1236
1763 1329 2865 13 155 13 556 0 710 -34 394 -101 721 -224 1090 -451 1351
-1521 2417 -2876 2865 -549 182 -1166 259 -1740 219z"/>
<path d="M4270 9083 c-670 -38 -1321 -324 -1804 -793 -474 -459 -744 -995
-848 -1680 -18 -117 -17 -605 0 -725 102 -678 375 -1216 853 -1680 433 -420
989 -686 1609 -771 174 -24 530 -24 700 0 532 73 991 263 1400 580 137 105
384 353 487 486 417 543 621 1164 600 1835 -19 612 -220 1171 -600 1665 -101
131 -328 359 -467 470 -544 432 -1237 653 -1930 613z"/>
</g>
</svg>
