<?xml version="1.0" standalone="no"?>
<!DOCTYPE svg PUBLIC "-//W3C//DTD SVG 20010904//EN"
 "http://www.w3.org/TR/2001/REC-SVG-20010904/DTD/svg10.dtd">
<svg version="1.0" xmlns="http://www.w3.org/2000/svg"
 width="1250.000000pt" height="1250.000000pt" viewBox="0 0 1250.000000 1250.000000"
 preserveAspectRatio="xMidYMid meet">
<metadata>
Created by potrace 1.16, written by Peter Selinger 2001-2019
</metadata>
<g transform="translate(0.000000,1250.000000) scale(0.100000,-0.100000)"
fill="#000000" stroke="none">
<path d="M7620 11417 c0 -4 11 -67 24 -140 169 -923 38 -1892 -375 -2774 -112
-240 -289 -532 -461 -761 -85 -113 -103 -132 -110 -116 -4 10 -31 82 -59 159
-271 737 -743 1423 -1384 2009 -390 357 -855 675 -1345 919 -197 99 -350 170
-350 162 0 -1 24 -18 53 -36 354 -225 782 -631 1077 -1024 415 -553 695 -1161
844 -1830 35 -158 80 -435 71 -443 -2 -2 -77 27 -167 66 -1239 533 -2617 603
-3878 197 -146 -47 -482 -176 -476 -182 2 -2 64 7 137 21 907 166 1860 43
2723 -350 317 -145 630 -339 925 -572 l24 -19 -69 -23 c-132 -43 -370 -143
-549 -230 -875 -427 -1671 -1167 -2227 -2070 -140 -227 -312 -554 -407 -775
-27 -62 -19 -54 56 60 177 266 485 607 763 845 584 501 1296 855 2055 1024
159 35 435 80 443 71 2 -2 -21 -62 -51 -132 -83 -190 -130 -312 -185 -478
-372 -1115 -382 -2329 -30 -3425 51 -159 179 -493 186 -486 2 3 -6 51 -17 108
-99 495 -101 1073 -5 1628 122 707 437 1428 862 1971 62 80 78 96 84 82 4 -10
31 -81 59 -158 445 -1210 1432 -2273 2710 -2920 153 -77 342 -165 356 -165 3
0 -32 26 -78 57 -288 194 -618 492 -859 773 -501 585 -856 1298 -1024 2055
-35 162 -79 435 -71 443 2 3 62 -20 132 -51 450 -196 860 -318 1336 -397 902
-149 1833 -73 2677 219 138 48 394 150 377 151 -4 0 -67 -11 -140 -24 -844
-155 -1736 -58 -2557 278 -243 100 -500 235 -725 381 -110 71 -385 271 -385
280 0 2 30 13 68 26 125 41 386 150 537 224 531 260 984 591 1430 1046 425
433 758 894 1040 1442 86 167 185 378 185 394 0 4 -33 -42 -74 -102 -235 -347
-618 -744 -981 -1015 -558 -417 -1160 -695 -1830 -844 -158 -35 -435 -80 -443
-71 -2 2 27 77 66 167 532 1239 603 2632 196 3882 -57 174 -182 498 -184 473z
m-1467 -3497 c210 -249 355 -537 419 -833 18 -85 22 -134 23 -294 0 -124 3
-189 10 -185 6 3 28 20 50 37 22 18 86 62 143 99 279 183 465 467 526 802 l14
79 1 -55 c2 -128 -41 -374 -96 -545 -91 -284 -227 -511 -416 -696 -53 -53 -75
-80 -66 -84 43 -15 211 -37 324 -42 322 -14 645 68 915 233 l45 27 -25 -28
c-14 -15 -70 -63 -125 -108 -258 -208 -517 -336 -808 -399 -84 -18 -135 -22
-294 -22 -124 -1 -189 -4 -185 -11 3 -5 20 -28 37 -50 18 -22 61 -85 97 -140
152 -234 354 -391 620 -480 57 -19 140 -41 184 -49 l79 -14 -62 -1 c-34 -1
-113 6 -175 15 -434 60 -793 228 -1054 492 -55 56 -85 80 -89 71 -15 -44 -37
-212 -42 -329 -9 -204 18 -393 82 -586 32 -96 107 -256 156 -334 l23 -35 -28
25 c-16 14 -65 70 -109 125 -206 255 -336 519 -399 810 -18 83 -22 133 -23
292 0 106 -3 193 -6 193 -3 0 -14 -9 -25 -21 -10 -11 -77 -59 -147 -106 -201
-134 -341 -284 -433 -466 -45 -89 -100 -252 -118 -353 l-14 -79 -1 57 c-1 82
26 276 55 397 87 352 242 635 467 852 38 37 65 69 61 72 -5 3 -54 13 -109 23
-76 14 -147 18 -295 18 -172 0 -210 -4 -324 -28 -186 -39 -364 -109 -516 -203
l-55 -34 60 57 c257 242 573 411 905 485 90 20 133 24 297 24 106 0 193 3 193
6 0 3 -10 14 -21 25 -12 10 -59 75 -104 144 -101 152 -179 239 -293 325 -152
114 -338 195 -530 229 l-77 14 55 1 c127 2 368 -40 542 -96 283 -89 504 -220
691 -410 59 -58 88 -82 91 -72 16 44 38 212 43 329 14 321 -71 654 -232 906
-49 76 -20 51 88 -76z"/>
</g>
</svg>
