<?xml version="1.0" standalone="no"?>
<!DOCTYPE svg PUBLIC "-//W3C//DTD SVG 20010904//EN"
 "http://www.w3.org/TR/2001/REC-SVG-20010904/DTD/svg10.dtd">
<svg version="1.0" xmlns="http://www.w3.org/2000/svg"
 width="1250.000000pt" height="1250.000000pt" viewBox="0 0 1250.000000 1250.000000"
 preserveAspectRatio="xMidYMid meet">

<g transform="translate(0.000000,1250.000000) scale(0.100000,-0.100000)"
fill="#000000" stroke="none">
<path d="M6225 12028 c-3 -18 -70 -456 -150 -973 -79 -517 -257 -1674 -394
-2571 -138 -897 -251 -1640 -251 -1652 l0 -22 253 2 252 3 147 950 c81 523
147 953 147 958 2 18 39 5 44 -15 3 -13 70 -443 148 -957 133 -864 145 -934
164 -940 11 -3 125 -5 253 -3 227 3 232 3 232 23 0 12 -52 359 -115 772 -64
414 -242 1571 -395 2572 -154 1001 -282 1835 -285 1853 -4 23 -11 32 -25 32
-14 0 -21 -9 -25 -32z"/>
<path d="M4116 11263 c-5 -22 -737 -4786 -787 -5119 -7 -45 -9 -89 -6 -98 6
-14 34 -16 245 -16 180 0 242 3 249 13 5 6 74 433 152 947 79 514 145 943 148
953 6 24 32 21 42 -5 4 -13 22 -115 39 -228 192 -1259 255 -1657 264 -1667 13
-16 464 -18 488 -3 12 8 11 32 -13 182 -15 95 -146 949 -291 1898 -146 949
-315 2048 -376 2443 -60 395 -110 720 -110 723 0 2 -9 4 -19 4 -13 0 -21 -9
-25 -27z"/>
<path d="M8336 11253 c-4 -21 -49 -312 -100 -648 -52 -335 -230 -1498 -397
-2583 -257 -1677 -301 -1975 -288 -1983 23 -14 474 -12 487 4 5 6 75 437 155
955 80 519 150 949 156 955 8 8 15 7 24 -3 9 -9 68 -370 157 -955 79 -517 148
-946 153 -952 7 -10 67 -13 237 -13 126 0 235 3 244 6 9 3 16 16 16 28 0 19
-785 5152 -796 5204 -3 13 -12 22 -23 22 -14 0 -21 -10 -25 -37z"/>
<path d="M6124 6611 c-47 -12 -92 -48 -114 -91 -20 -39 -20 -70 -20 -3060 l0
-3020 260 0 260 0 0 3023 c0 2923 -1 3023 -19 3057 -10 19 -37 48 -60 64 -39
29 -47 30 -159 33 -64 1 -131 -2 -148 -6z"/>
<path d="M4018 5841 c-48 -10 -101 -51 -122 -94 -15 -32 -16 -239 -16 -2546
l0 -2511 260 0 260 0 0 2510 c0 2490 0 2511 -20 2550 -13 25 -37 49 -67 67
-43 25 -58 28 -153 30 -58 1 -122 -2 -142 -6z"/>
<path d="M8236 5840 c-53 -14 -93 -45 -116 -90 -20 -39 -20 -69 -20 -2550 l0
-2510 260 0 260 0 -2 2523 -3 2524 -27 35 c-42 55 -87 71 -208 74 -58 2 -122
-1 -144 -6z"/>
</g>
</svg>
