<?xml version="1.0" standalone="no"?>
<!DOCTYPE svg PUBLIC "-//W3C//DTD SVG 20010904//EN"
 "http://www.w3.org/TR/2001/REC-SVG-20010904/DTD/svg10.dtd">
<svg version="1.0" xmlns="http://www.w3.org/2000/svg"
 width="1250.000000pt" height="1250.000000pt" viewBox="0 0 1250.000000 1250.000000"
 preserveAspectRatio="xMidYMid meet">

<g transform="translate(0.000000,1250.000000) scale(0.100000,-0.100000)"
fill="#000000" stroke="none">
<path d="M6780 10360 c-926 -46 -1694 -252 -2269 -607 -233 -144 -435 -317
-450 -385 -7 -28 74 -529 368 -2292 251 -1497 373 -2256 366 -2256 -7 0 -47 9
-91 20 -140 37 -262 50 -444 51 -281 0 -499 -39 -795 -144 -215 -76 -462 -213
-669 -370 -111 -84 -321 -294 -396 -397 -230 -313 -335 -637 -301 -929 48
-417 332 -722 796 -857 152 -44 266 -58 475 -58 222 0 347 16 556 69 461 118
918 391 1206 719 265 302 411 650 407 971 0 71 -68 466 -320 1885 l-320 1795
33 28 c266 228 771 438 1323 551 454 94 883 135 1481 143 634 9 1087 -35 1401
-135 84 -27 88 -29 95 -62 4 -19 26 -179 48 -355 54 -425 348 -2727 356 -2787
4 -27 3 -48 -2 -48 -5 0 -34 7 -64 15 -329 90 -762 65 -1153 -66 -720 -240
-1273 -764 -1424 -1349 -36 -138 -42 -332 -15 -460 85 -410 404 -693 901 -801
141 -31 462 -38 637 -14 259 35 504 110 749 230 263 128 450 260 641 450 214
214 352 424 432 660 51 151 65 234 65 400 -1 131 -16 273 -122 1120 -67 534
-151 1209 -187 1500 -36 292 -119 962 -184 1490 -65 528 -138 1111 -160 1295
-30 238 -46 344 -59 365 -35 62 -288 216 -491 300 -378 156 -869 261 -1435
305 -181 15 -775 20 -985 10z"/>
</g>
</svg>
