<?xml version="1.0" standalone="no"?>
<!DOCTYPE svg PUBLIC "-//W3C//DTD SVG 20010904//EN"
 "http://www.w3.org/TR/2001/REC-SVG-20010904/DTD/svg10.dtd">
<svg version="1.0" xmlns="http://www.w3.org/2000/svg"
 width="1250.000000pt" height="1250.000000pt" viewBox="0 0 1250.000000 1250.000000"
 preserveAspectRatio="xMidYMid meet">

<g transform="translate(0.000000,1250.000000) scale(0.100000,-0.100000)"
fill="#000000" stroke="none">
<path d="M3543 10981 c-192 -151 -464 -642 -554 -998 -57 -224 -63 -428 -17
-551 94 -250 469 -668 696 -775 82 -38 127 -43 215 -23 256 61 567 307 675
534 35 73 35 74 29 180 -6 122 -34 232 -103 410 -163 422 -441 860 -730 1150
-83 84 -118 112 -137 112 -14 0 -47 -17 -74 -39z"/>
<path d="M8763 10913 c-315 -313 -621 -809 -768 -1248 -74 -219 -93 -363 -60
-456 93 -263 515 -580 775 -583 64 -1 83 4 130 28 108 56 177 111 315 250 193
193 334 387 387 531 19 52 22 80 22 215 1 173 -12 251 -71 435 -121 377 -376
801 -553 919 -46 30 -64 21 -177 -91z"/>
<path d="M6148 10057 c-137 -70 -355 -240 -674 -524 -249 -222 -613 -630 -647
-726 -5 -12 25 -75 92 -195 404 -725 663 -1273 687 -1452 12 -93 -40 -100
-268 -34 -365 105 -1009 427 -1469 735 -686 458 -1267 1015 -1629 1559 -34 52
-66 99 -70 104 -20 21 -167 -109 -271 -239 -165 -205 -283 -457 -341 -728 -29
-139 -32 -415 -5 -559 18 -94 25 -108 190 -410 94 -172 239 -434 323 -583 94
-167 147 -271 139 -273 -20 -5 -273 82 -392 135 -153 69 -295 150 -411 237
-95 72 -251 223 -287 280 -17 26 -19 27 -26 9 -45 -123 -54 -838 -14 -1266
l16 -179 51 -81 c105 -168 223 -312 380 -463 303 -291 652 -471 1015 -522 68
-9 123 -19 123 -22 0 -3 -69 -50 -152 -105 -515 -339 -876 -621 -903 -705 -9
-30 10 -45 134 -106 308 -151 793 -295 1209 -359 332 -51 608 -57 845 -19 l38
6 -27 -54 c-41 -82 -132 -210 -258 -363 -64 -77 -116 -147 -116 -156 0 -45
702 -326 935 -374 44 -9 81 -20 83 -24 1 -5 69 -118 150 -252 159 -262 281
-449 372 -569 66 -86 162 -180 167 -163 3 7 -7 74 -21 150 -36 197 -46 289
-46 438 0 124 15 248 41 333 10 36 9 48 -16 113 -60 158 -188 427 -474 994
-164 325 -300 596 -302 603 -3 9 -63 26 -159 47 -201 43 -296 67 -411 106
-288 97 -473 219 -539 355 -34 69 -24 126 38 223 68 109 299 308 461 398 l64
36 32 -18 c36 -19 190 -173 320 -320 199 -224 393 -425 410 -424 5 0 39 36 75
81 90 111 334 362 476 490 412 369 786 601 1060 655 75 14 98 15 170 5 171
-25 362 -112 609 -277 315 -211 716 -573 955 -863 41 -50 80 -91 85 -91 15 -1
235 224 381 389 176 199 294 319 341 347 l42 25 48 -27 c192 -105 438 -328
502 -456 51 -103 39 -163 -54 -267 -137 -153 -446 -281 -895 -372 -87 -18
-146 -35 -149 -42 -2 -7 -135 -274 -296 -593 -278 -549 -400 -806 -474 -992
l-33 -82 15 -63 c55 -223 51 -440 -14 -786 -12 -62 -19 -116 -16 -119 9 -8 57
33 110 95 101 119 330 465 492 745 l90 155 65 12 c215 41 950 330 950 374 0
17 -37 67 -134 181 -101 119 -175 223 -227 319 l-42 78 29 -6 c72 -15 221 -26
349 -26 376 1 841 85 1290 235 285 95 547 212 562 251 24 62 -269 300 -848
689 -112 76 -203 140 -202 144 1 3 31 9 65 13 249 28 522 129 748 275 256 166
533 452 703 724 l47 75 17 180 c22 228 25 997 5 1139 -22 161 -17 153 -65 92
-166 -210 -436 -395 -779 -533 -105 -42 -268 -94 -295 -94 -7 0 13 45 46 103
95 167 350 627 471 847 130 238 146 292 156 520 20 443 -167 910 -487 1216
-41 38 -89 81 -108 94 -33 23 -35 23 -45 6 -6 -10 -50 -75 -98 -145 -527 -761
-1402 -1481 -2393 -1971 -387 -191 -746 -320 -889 -320 -66 0 -70 55 -16 212
52 151 105 271 270 599 133 266 189 372 372 701 l109 197 -20 39 c-55 108
-418 512 -631 704 -423 379 -682 568 -781 568 -10 0 -55 -19 -101 -43z"/>
<path d="M6080 5205 c-222 -44 -482 -177 -748 -384 -119 -93 -336 -303 -418
-406 -75 -93 -78 -111 -38 -213 27 -68 215 -443 237 -474 12 -15 24 -13 155
18 303 72 592 113 592 84 0 -28 -158 -168 -251 -223 -95 -56 -290 -144 -341
-154 -15 -3 -28 -10 -28 -16 0 -36 121 -340 191 -480 l29 -57 38 19 c106 54
352 119 535 142 144 17 443 7 579 -20 132 -26 280 -70 372 -109 l69 -30 39 82
c80 164 178 414 178 452 0 7 -14 15 -31 19 -84 19 -299 123 -407 197 -70 49
-151 129 -174 171 -10 20 -8 20 79 14 123 -9 503 -82 635 -123 12 -4 34 29 96
143 149 275 212 434 190 476 -42 81 -303 348 -468 479 -263 210 -534 349 -760
392 -98 19 -259 19 -350 1z"/>
<path d="M6045 2679 c-151 -20 -344 -81 -448 -143 -43 -25 -46 -29 -62 -98
-33 -143 -30 -320 6 -415 l9 -24 52 40 c77 57 172 102 233 108 98 10 173 -46
232 -174 23 -48 27 -72 28 -143 0 -95 -13 -130 -71 -190 l-34 -36 44 -37 c80
-66 112 -80 197 -85 105 -6 153 9 228 70 l61 50 -39 43 c-95 104 -90 274 13
414 87 118 207 120 377 6 45 -30 85 -55 89 -55 16 0 32 82 37 185 5 107 -14
262 -37 305 -22 42 -226 126 -388 160 -112 24 -410 35 -527 19z"/>
</g>
</svg>
