<?xml version="1.0" standalone="no"?>
<!DOCTYPE svg PUBLIC "-//W3C//DTD SVG 20010904//EN"
 "http://www.w3.org/TR/2001/REC-SVG-20010904/DTD/svg10.dtd">
<svg version="1.0" xmlns="http://www.w3.org/2000/svg"
 width="1250.000000pt" height="1250.000000pt" viewBox="0 0 1250.000000 1250.000000"
 preserveAspectRatio="xMidYMid meet">

<g transform="translate(0.000000,1250.000000) scale(0.100000,-0.100000)"
fill="#000000" stroke="none">
<path d="M6175 10986 c-113 -66 -319 -280 -551 -571 -212 -266 -330 -405 -344
-405 -4 0 -68 32 -142 71 -537 288 -889 437 -1121 477 l-99 17 -60 -64 c-182
-193 -381 -489 -558 -826 -35 -66 -64 -121 -65 -123 -1 -1 -101 44 -221 102
-363 172 -602 265 -776 300 -90 19 -129 20 -180 6 -36 -10 -38 -13 -67 -104
-53 -163 -66 -287 -65 -591 1 -196 5 -300 17 -378 l17 -108 -25 -49 c-154
-303 -148 -1189 15 -2484 l39 -309 -27 -32 c-15 -18 -108 -122 -208 -231
l-181 -199 267 -480 c185 -333 278 -492 306 -519 91 -89 425 -289 896 -538
320 -168 1011 -506 1063 -520 55 -15 124 9 156 54 35 49 34 105 -6 313 -42
221 -53 375 -36 495 25 170 42 212 398 1000 174 383 166 360 161 469 -3 76 -9
107 -29 151 -33 72 -79 123 -132 149 -27 13 -272 63 -687 141 -355 66 -655
122 -667 125 l-23 5 0 373 c0 437 2 450 80 527 47 48 118 80 178 80 18 0 1458
-358 1975 -491 81 -21 148 -111 168 -225 9 -52 6 -81 -24 -239 -19 -99 -92
-481 -163 -849 -128 -668 -128 -668 -117 -745 22 -148 91 -259 194 -310 l62
-31 657 0 657 0 61 31 c104 52 173 160 194 306 l12 81 -160 829 c-98 512 -159
849 -158 884 2 123 79 244 169 267 22 6 213 54 425 106 212 53 642 161 955
241 314 79 582 145 596 145 60 0 131 -31 179 -80 78 -77 80 -90 80 -526 0
-346 -1 -373 -17 -378 -10 -2 -315 -60 -678 -128 -617 -115 -663 -125 -705
-153 -95 -64 -145 -179 -138 -323 4 -85 6 -92 97 -292 430 -945 428 -940 456
-1109 24 -144 16 -286 -30 -531 -39 -206 -40 -260 -9 -304 30 -41 97 -70 146
-62 43 7 870 414 1203 592 407 217 686 388 772 473 26 25 122 189 298 507 143
258 260 476 260 485 0 9 -91 117 -203 240 l-203 224 6 40 c3 22 21 162 40 310
158 1256 161 2171 9 2444 l-24 43 17 122 c13 88 17 192 17 381 1 293 -13 421
-65 581 -27 84 -32 93 -61 103 -123 43 -437 -56 -952 -301 -126 -60 -230 -107
-231 -106 -1 2 -29 55 -62 118 -180 343 -370 625 -551 820 l-69 75 -99 -17
c-121 -21 -268 -68 -445 -143 -145 -62 -502 -238 -691 -341 -64 -35 -122 -64
-127 -64 -15 0 -127 131 -346 405 -226 283 -423 490 -530 557 -38 25 -77 47
-85 50 -8 3 -46 -13 -85 -36z"/>
<path d="M5330 3459 c-159 -19 -328 -81 -467 -170 -28 -19 -158 -124 -287
-234 l-236 -200 0 -521 0 -520 158 -52 c736 -243 1509 -336 2228 -267 454 44
887 135 1312 277 l122 41 0 521 -1 521 -211 180 c-116 99 -239 201 -274 226
-76 56 -196 119 -283 148 -164 56 -125 54 -1091 57 -492 1 -929 -2 -970 -7z"/>
</g>
</svg>
