<?xml version="1.0" standalone="no"?>
<!DOCTYPE svg PUBLIC "-//W3C//DTD SVG 20010904//EN"
 "http://www.w3.org/TR/2001/REC-SVG-20010904/DTD/svg10.dtd">
<svg version="1.0" xmlns="http://www.w3.org/2000/svg"
 width="1250.000000pt" height="1250.000000pt" viewBox="0 0 1250.000000 1250.000000"
 preserveAspectRatio="xMidYMid meet">
<metadata>
Created by potrace 1.16, written by Peter Selinger 2001-2019
</metadata>
<g transform="translate(0.000000,1250.000000) scale(0.100000,-0.100000)"
fill="#000000" stroke="none">
<path d="M6949 11449 c-54 -8 -96 -28 -125 -61 -12 -12 -99 -189 -194 -393
-95 -203 -219 -469 -275 -590 l-103 -220 -173 -6 c-182 -7 -354 -26 -527 -58
l-103 -19 -42 57 c-23 31 -200 269 -394 529 -313 419 -358 475 -396 492 -48
22 -128 26 -178 8 -32 -11 -237 -120 -994 -529 -177 -96 -326 -183 -348 -204
-45 -43 -77 -106 -76 -155 0 -20 93 -292 223 -650 l224 -614 -88 -96 c-126
-136 -233 -267 -334 -407 -49 -68 -91 -123 -95 -123 -3 0 -284 41 -624 90
-340 50 -639 90 -665 90 -60 0 -124 -38 -165 -98 -22 -30 -81 -213 -238 -739
-228 -759 -231 -775 -191 -864 34 -77 -46 -36 1032 -537 113 -52 208 -100 212
-106 4 -6 8 -59 8 -117 0 -166 47 -588 75 -666 4 -13 -9 -23 -618 -477 -405
-302 -440 -330 -459 -373 -30 -69 -22 -152 23 -240 132 -255 667 -1235 691
-1265 34 -44 119 -88 167 -88 21 0 292 94 650 224 l614 224 116 -107 c160
-145 456 -378 503 -393 6 -2 -23 -232 -81 -633 -50 -347 -91 -649 -91 -673 0
-81 65 -164 155 -197 22 -8 344 -105 714 -216 731 -218 744 -221 833 -181 25
11 56 35 70 53 14 19 146 293 293 609 148 316 272 578 277 581 5 3 87 9 181
12 178 6 337 23 515 55 l103 19 395 -529 c435 -583 420 -567 530 -568 83 0 -6
-45 1133 570 142 77 271 154 293 175 47 43 78 106 77 155 0 20 -93 292 -223
649 l-224 614 107 116 c155 171 391 474 391 504 0 6 17 7 43 4 23 -3 307 -45
631 -92 325 -47 611 -85 636 -85 58 0 128 42 165 98 18 27 93 262 236 738 228
760 232 775 192 865 -11 24 -31 54 -44 65 -20 19 -434 216 -1059 505 l-145 67
-6 173 c-7 180 -25 350 -57 527 l-19 103 529 395 c469 350 532 400 549 437 21
48 25 127 7 178 -9 28 -116 231 -313 594 -18 33 -108 200 -200 370 -92 171
-178 327 -192 347 -33 49 -104 95 -159 104 -53 8 8 28 -863 -289 l-425 -155
-95 88 c-136 125 -246 215 -398 326 -73 53 -133 100 -133 104 0 3 41 285 90
624 50 340 90 639 90 665 0 59 -41 128 -99 166 -28 19 -251 90 -723 232 -376
112 -703 207 -728 211 -25 4 -66 5 -91 1z m-244 -1928 c355 -55 630 -136 927
-272 395 -181 726 -423 1040 -759 494 -528 802 -1223 869 -1959 16 -187 7
-565 -20 -736 -129 -845 -522 -1550 -1158 -2080 -735 -612 -1697 -876 -2643
-724 -1202 192 -2208 1047 -2599 2207 -170 508 -215 1052 -130 1582 88 549
325 1086 672 1523 110 139 326 358 477 484 497 416 1141 685 1795 752 158 17
621 6 770 -18z"/>
<path d="M6070 9030 c-578 -39 -1139 -262 -1587 -629 -127 -104 -331 -311
-424 -431 -756 -972 -793 -2300 -94 -3310 145 -209 375 -454 565 -601 736
-572 1690 -743 2572 -459 638 204 1186 638 1535 1215 208 344 333 718 384
1145 17 143 14 473 -5 620 -67 504 -246 946 -545 1348 -109 145 -368 411 -502
515 -417 321 -911 522 -1419 576 -145 15 -352 20 -480 11z m457 -936 c305 -45
609 -174 858 -362 155 -118 353 -338 454 -506 403 -666 360 -1498 -108 -2111
-61 -80 -219 -243 -300 -310 -428 -350 -1006 -493 -1546 -384 -237 48 -525
172 -715 307 -106 75 -282 240 -364 341 -469 576 -553 1359 -216 2028 86 170
174 294 308 434 173 180 320 289 537 394 345 168 718 226 1092 169z"/>
</g>
</svg>
