<?xml version="1.0" standalone="no"?>
<!DOCTYPE svg PUBLIC "-//W3C//DTD SVG 20010904//EN"
 "http://www.w3.org/TR/2001/REC-SVG-20010904/DTD/svg10.dtd">
<svg version="1.0" xmlns="http://www.w3.org/2000/svg"
 width="1250.000000pt" height="1250.000000pt" viewBox="0 0 1250.000000 1250.000000"
 preserveAspectRatio="xMidYMid meet">

<g transform="translate(0.000000,1250.000000) scale(0.100000,-0.100000)"
fill="#000000" stroke="none">
<path d="M6222 11078 c-14 -19 -268 -1684 -436 -2858 -343 -2400 -532 -4012
-608 -5180 -13 -212 -17 -827 -5 -911 8 -55 9 -56 50 -69 57 -17 134 -56 182
-93 22 -17 116 -105 209 -195 299 -290 425 -362 631 -362 104 0 183 18 270 61
91 45 161 101 357 290 99 95 199 187 222 204 50 39 149 90 192 99 41 9 42 15
50 301 21 755 -149 2441 -506 5035 -175 1269 -530 3632 -551 3672 -11 21 -42
24 -57 6z"/>
<path d="M927 9469 c-21 -12 -21 -32 -2 -106 9 -32 23 -112 32 -178 24 -165
23 -696 -1 -1225 -54 -1177 19 -1570 357 -1927 200 -212 399 -348 1112 -763
460 -268 737 -489 878 -699 127 -188 205 -450 243 -816 22 -211 23 -748 0
-1180 -16 -323 -21 -746 -10 -842 6 -50 8 -53 48 -68 89 -34 255 -35 368 -2
47 14 58 22 67 48 45 130 279 262 602 339 l96 23 7 116 c26 448 170 2023 226
2474 8 64 6 98 -10 195 -47 274 -127 500 -230 652 -93 137 -377 376 -637 537
-295 183 -502 285 -1148 565 -698 302 -915 435 -999 612 -46 97 -83 216 -171
554 -86 335 -127 478 -188 657 -139 410 -313 726 -527 958 -72 78 -89 89 -113
76z"/>
<path d="M11525 9458 c-98 -77 -279 -328 -389 -538 -147 -282 -237 -546 -391
-1142 -123 -474 -160 -573 -251 -668 -126 -132 -346 -251 -929 -502 -639 -276
-930 -422 -1221 -613 -232 -154 -475 -367 -561 -495 -96 -142 -177 -376 -222
-641 -20 -115 -20 -116 0 -295 91 -834 218 -2260 219 -2455 l0 -35 98 -23
c238 -57 438 -148 532 -241 33 -33 60 -70 66 -90 8 -31 16 -37 64 -53 111 -37
287 -38 376 -2 39 15 42 19 48 68 11 96 6 523 -10 839 -20 378 -23 952 -6
1133 42 445 134 729 302 938 173 216 399 380 1005 732 624 363 875 554 1050
800 239 336 285 710 235 1915 -30 721 -21 1054 35 1271 20 79 19 96 -4 108
-15 8 -25 6 -46 -11z"/>
</g>
</svg>
