<?xml version="1.0" standalone="no"?>
<!DOCTYPE svg PUBLIC "-//W3C//DTD SVG 20010904//EN"
 "http://www.w3.org/TR/2001/REC-SVG-20010904/DTD/svg10.dtd">
<svg version="1.0" xmlns="http://www.w3.org/2000/svg"
 width="1250.000000pt" height="1250.000000pt" viewBox="0 0 1250.000000 1250.000000"
 preserveAspectRatio="xMidYMid meet">
<metadata>
Created by potrace 1.16, written by Peter Selinger 2001-2019
</metadata>
<g transform="translate(0.000000,1250.000000) scale(0.100000,-0.100000)"
fill="#000000" stroke="none">
<path d="M5663 11088 c-36 -57 -278 -434 -536 -838 -258 -404 -505 -789 -547
-855 -92 -143 -789 -1233 -1110 -1735 -217 -340 -368 -576 -825 -1290 -114
-179 -214 -340 -222 -358 -7 -18 -10 -44 -7 -58 4 -15 132 -295 285 -623 210
-448 279 -605 279 -634 0 -23 -56 -193 -150 -453 -83 -229 -150 -418 -148
-419 2 -2 30 13 63 33 33 19 107 54 165 78 l105 42 138 349 c76 191 225 569
332 838 464 1172 1055 2666 1055 2669 0 12 43 97 47 93 2 -3 -117 -374 -266
-824 -149 -450 -271 -822 -271 -826 0 -5 75 56 168 133 92 78 373 315 625 528
252 212 462 395 466 406 5 12 36 237 70 501 33 264 135 1056 226 1760 217
1681 202 1550 186 1569 -8 9 -24 16 -37 16 -20 0 -37 -20 -91 -102z"/>
<path d="M8728 10048 c-64 -53 -916 -771 -1018 -858 -55 -47 -555 -468 -1565
-1319 -918 -774 -1357 -1144 -1711 -1443 -188 -158 -345 -295 -348 -304 -11
-29 -6 -88 23 -300 119 -849 145 -1064 135 -1101 -12 -46 -631 -866 -649 -860
-89 35 -387 33 -520 -2 -109 -29 -289 -119 -377 -189 -420 -334 -517 -939
-223 -1382 45 -68 180 -220 195 -220 4 0 4 18 -1 40 -34 151 -29 354 12 520
16 64 22 120 23 225 2 162 20 228 91 343 48 78 52 79 157 30 l68 -31 38 35
c59 53 154 115 238 155 67 32 75 39 86 74 13 44 12 44 90 25 48 -11 68 -11
130 1 164 32 398 15 573 -42 41 -14 77 -25 80 -25 4 0 123 154 385 500 217
286 221 291 254 311 17 10 57 21 89 25 32 4 60 12 63 18 2 6 19 166 39 356 19
190 38 365 41 390 6 40 5 43 -9 30 -12 -12 -404 -558 -930 -1295 -55 -77 -103
-144 -107 -148 -5 -5 -42 18 -84 51 -41 33 -89 69 -106 78 -16 10 -30 22 -30
26 0 4 104 137 232 295 340 421 492 610 703 873 104 129 243 303 310 385 67
83 179 222 250 310 71 88 192 239 270 335 335 416 485 602 873 1085 124 154
227 282 229 284 1 2 6 2 9 -1 3 -4 -104 -159 -237 -345 -918 -1279 -988 -1378
-984 -1382 2 -2 383 186 847 416 l843 420 434 949 c239 522 474 1035 522 1139
491 1072 689 1510 689 1529 0 26 -18 46 -41 46 -10 0 -46 -24 -81 -52z"/>
<path d="M10190 7782 c-338 -169 -1427 -711 -2420 -1205 -993 -494 -1951 -971
-2130 -1060 -219 -109 -330 -170 -342 -187 -13 -20 -29 -147 -78 -615 -33
-324 -63 -617 -66 -650 -3 -33 -12 -79 -21 -103 -16 -46 -44 -71 -343 -312
-78 -63 -219 -177 -311 -252 -93 -76 -173 -138 -178 -138 -4 0 -39 14 -77 31
-38 17 -112 43 -164 57 -83 22 -115 25 -255 25 -142 0 -171 -3 -259 -26 -411
-110 -709 -447 -766 -865 -84 -618 400 -1171 1026 -1172 326 0 632 153 826
415 193 257 251 559 172 895 -6 27 -39 -1 705 603 53 42 112 82 131 88 28 8
175 -5 695 -59 468 -49 669 -66 692 -60 26 7 58 41 155 165 68 85 204 258 303
383 99 125 229 290 289 366 60 76 133 168 161 204 28 36 130 164 225 285 95
121 197 249 225 285 29 36 165 209 304 385 139 176 308 390 375 475 67 85 200
254 296 375 95 121 197 249 225 285 29 36 165 209 304 385 139 176 308 390
375 475 67 85 200 254 296 375 95 121 197 249 225 285 60 76 85 111 85 122 0
13 -39 48 -52 47 -7 0 -290 -138 -628 -307z m-2030 -1906 c0 -4 -917 -795
-2065 -1781 -895 -769 -1153 -991 -1270 -1092 -71 -62 -132 -113 -135 -113 -3
0 -14 14 -25 32 -10 18 -48 65 -83 106 -35 40 -62 75 -60 76 1 2 185 142 408
312 223 171 619 474 880 674 261 200 646 495 855 655 655 502 1327 1017 1405
1077 68 53 90 66 90 54z m-4215 -2904 l30 -9 0 -114 c0 -89 -5 -129 -22 -184
-29 -90 -83 -182 -150 -250 -54 -55 -141 -121 -149 -112 -3 2 6 42 18 88 20
73 23 108 23 259 0 139 -4 189 -19 243 -10 38 -15 71 -12 75 21 21 209 23 281
4z m-638 -344 c-6 -142 -46 -260 -118 -356 l-18 -23 -7 36 c-14 74 17 247 58
329 32 64 72 126 82 126 5 0 6 -49 3 -112z m1128 -163 c47 -227 -45 -476 -230
-623 -209 -166 -492 -185 -725 -50 l-55 32 75 13 c93 16 197 47 277 83 259
118 475 367 553 640 12 41 24 82 27 90 9 24 60 -97 78 -185z"/>
<path d="M3631 5023 c-178 -538 -326 -984 -328 -990 -4 -10 13 -13 63 -13 38
0 96 -5 129 -10 58 -10 61 -9 80 15 12 14 49 103 84 199 73 203 80 211 217
275 89 42 94 46 161 135 39 50 75 100 80 111 8 15 -11 174 -73 628 -46 335
-84 613 -86 619 -2 5 -149 -431 -327 -969z"/>
<path d="M2400 3651 c-328 -90 -601 -343 -709 -660 -41 -119 -54 -201 -54
-341 0 -148 18 -246 71 -383 100 -256 317 -474 573 -575 146 -58 199 -67 389
-67 96 0 183 3 193 7 16 7 14 14 -21 65 -22 32 -51 81 -65 109 -17 33 -40 60
-69 79 -24 15 -72 51 -108 80 -43 35 -87 61 -130 75 -102 34 -168 77 -255 164
-130 130 -185 264 -185 446 0 145 42 276 121 380 48 62 46 59 74 152 13 47 39
118 58 159 40 87 139 238 192 292 34 35 35 37 13 36 -13 0 -52 -8 -88 -18z"/>
</g>
</svg>
