<?xml version="1.0" standalone="no"?>
<!DOCTYPE svg PUBLIC "-//W3C//DTD SVG 20010904//EN"
 "http://www.w3.org/TR/2001/REC-SVG-20010904/DTD/svg10.dtd">
<svg version="1.0" xmlns="http://www.w3.org/2000/svg"
 width="1250.000000pt" height="1250.000000pt" viewBox="0 0 1250.000000 1250.000000"
 preserveAspectRatio="xMidYMid meet">

<g transform="translate(0.000000,1250.000000) scale(0.100000,-0.100000)"
fill="#000000" stroke="none">
<path d="M8319 10688 c-1302 -1337 -1926 -1978 -2524 -2593 -208 -214 -456
-469 -550 -565 -94 -96 -335 -344 -536 -550 -201 -206 -432 -444 -514 -528
-83 -85 -153 -160 -158 -167 -4 -7 -4 -20 -1 -29 6 -15 127 -16 1294 -16 708
0 1301 -3 1318 -6 17 -4 34 -14 37 -23 3 -11 -95 -220 -246 -527 -138 -280
-307 -621 -374 -759 -67 -137 -205 -416 -305 -620 -100 -203 -263 -534 -362
-735 -99 -201 -238 -482 -308 -625 -70 -143 -256 -520 -413 -838 -157 -318
-283 -585 -280 -592 11 -31 45 -28 78 6 17 19 245 261 506 539 260 278 651
694 869 925 217 231 502 535 634 675 132 140 306 325 386 410 81 85 438 466
795 845 357 380 784 834 950 1010 166 176 479 509 696 740 216 231 420 448
452 482 58 61 68 87 37 104 -8 5 -564 45 -1235 89 -1710 114 -1595 105 -1612
122 -13 13 88 220 859 1762 907 1814 888 1774 836 1784 -8 2 -151 -137 -329
-320z"/>
<path d="M3492 7188 c-5 -7 -37 -105 -70 -218 -34 -113 -121 -410 -196 -660
-74 -250 -245 -826 -380 -1280 -134 -454 -274 -925 -311 -1048 -66 -222 -71
-262 -36 -262 9 0 118 18 242 39 499 87 757 131 771 131 9 0 19 -8 23 -17 3
-10 46 -207 95 -438 49 -231 100 -472 114 -535 13 -63 68 -324 122 -580 53
-256 101 -471 107 -477 12 -16 43 -17 52 -2 8 11 11 55 120 1711 41 625 72
1144 69 1153 -3 8 -16 15 -29 15 -12 0 -224 -32 -471 -70 -421 -66 -450 -69
-462 -53 -7 9 -10 30 -7 48 3 16 28 217 55 445 52 437 129 1071 206 1703 37
302 44 380 34 392 -15 18 -34 19 -48 3z"/>
<path d="M8745 4499 c-682 -324 -1294 -614 -1360 -645 -153 -71 -167 -80 -163
-106 2 -15 68 -71 198 -170 107 -82 246 -188 308 -235 72 -55 112 -93 112
-105 0 -19 -7 -24 -617 -419 -159 -103 -443 -288 -633 -411 -190 -123 -560
-363 -823 -533 -434 -282 -477 -312 -475 -335 2 -14 10 -26 21 -28 9 -2 95 30
190 71 328 143 1455 633 2212 962 732 319 1080 470 1278 556 203 87 247 114
232 139 -3 5 -166 115 -361 245 -262 173 -355 240 -352 252 3 15 548 482 1260
1081 136 114 250 215 253 225 7 19 -10 47 -29 47 -6 -1 -569 -266 -1251 -591z"/>
</g>
</svg>
