<?xml version="1.0" standalone="no"?>
<!DOCTYPE svg PUBLIC "-//W3C//DTD SVG 20010904//EN"
 "http://www.w3.org/TR/2001/REC-SVG-20010904/DTD/svg10.dtd">
<svg version="1.0" xmlns="http://www.w3.org/2000/svg"
 width="1250.000000pt" height="1250.000000pt" viewBox="0 0 1250.000000 1250.000000"
 preserveAspectRatio="xMidYMid meet">
<metadata>
Created by potrace 1.16, written by Peter Selinger 2001-2019
</metadata>
<g transform="translate(0.000000,1250.000000) scale(0.100000,-0.100000)"
fill="#000000" stroke="none">
<path d="M5865 10785 c-1522 -129 -2885 -1022 -3618 -2372 -280 -514 -448
-1055 -524 -1683 -25 -204 -25 -753 0 -960 59 -501 172 -920 363 -1355 438
-998 1256 -1833 2244 -2290 469 -217 903 -339 1435 -402 210 -24 758 -25 964
0 504 60 927 173 1361 365 1026 452 1885 1313 2328 2338 193 444 300 845 359
1339 25 213 25 757 0 970 -126 1066 -569 1988 -1312 2730 -777 777 -1788 1242
-2881 1324 -182 14 -529 12 -719 -4z m845 -480 c74 -9 196 -27 270 -41 1056
-193 1995 -797 2617 -1684 272 -388 479 -836 598 -1295 138 -532 170 -1079 94
-1609 -175 -1221 -892 -2297 -1952 -2930 -929 -554 -2036 -716 -3089 -451
-283 71 -507 154 -793 295 -555 272 -1024 651 -1416 1145 -713 898 -1011 2104
-803 3245 183 1003 742 1909 1559 2526 635 480 1387 760 2195 818 126 9 590
-3 720 -19z"/>
<path d="M6025 9889 c-683 -43 -1328 -272 -1885 -668 -257 -183 -537 -445
-728 -684 -304 -380 -542 -840 -671 -1297 -209 -745 -178 -1532 91 -2260 98
-265 271 -591 448 -842 535 -761 1383 -1303 2305 -1473 305 -56 711 -75 1005
-46 855 84 1627 448 2235 1056 224 223 408 459 574 738 73 121 210 408 264
552 276 731 307 1547 87 2306 -69 237 -141 416 -266 658 -164 319 -386 622
-644 882 -303 305 -598 518 -985 709 -453 224 -897 340 -1405 370 -193 11
-248 11 -425 -1z m540 -480 c645 -62 1259 -327 1755 -755 667 -575 1057 -1375
1100 -2254 37 -758 -192 -1482 -663 -2095 -111 -145 -384 -422 -526 -534 -240
-190 -487 -337 -757 -449 -171 -72 -328 -122 -559 -178 -11 -3 43 26 120 64
1261 617 1920 1974 1619 3330 -83 372 -254 755 -479 1069 -189 263 -452 525
-710 705 -426 297 -892 472 -1410 528 -144 16 -487 13 -635 -4 -698 -84 -1318
-393 -1812 -905 -72 -75 -128 -129 -123 -121 142 253 349 517 576 735 668 641
1575 954 2504 864z m-400 -1058 c263 -47 450 -108 690 -226 495 -242 901 -647
1140 -1140 95 -196 186 -462 209 -615 7 -42 3 -38 -61 73 -132 229 -275 406
-451 563 -320 285 -699 464 -1124 531 -155 24 -479 24 -637 0 -635 -99 -1190
-466 -1526 -1008 -469 -756 -425 -1727 110 -2438 187 -247 410 -441 700 -605
55 -31 89 -55 75 -52 -233 49 -416 110 -605 200 -869 416 -1425 1291 -1425
2242 0 506 138 967 418 1393 80 122 178 241 305 370 396 402 882 644 1462 726
155 22 563 14 720 -14z m360 -1285 c395 -71 747 -266 997 -552 403 -461 530
-1086 338 -1666 -165 -498 -579 -907 -1086 -1074 -90 -29 -289 -74 -330 -74
-8 0 27 28 78 62 118 79 286 245 360 358 108 164 173 317 209 493 105 516 -93
1039 -516 1361 -275 209 -637 308 -975 265 -400 -49 -752 -265 -972 -593 -33
-50 -62 -93 -65 -96 -8 -8 7 96 29 199 115 541 509 1009 1023 1216 110 44 283
90 390 104 44 6 94 13 110 15 58 8 331 -4 410 -18z m-550 -1316 c115 -29 266
-107 354 -182 136 -115 247 -291 293 -463 29 -112 30 -327 0 -436 -42 -157
-125 -300 -237 -411 -170 -170 -383 -258 -621 -259 -242 0 -442 78 -615 239
-121 114 -211 264 -255 427 -29 107 -27 352 4 458 75 263 272 484 519 586 64
26 169 55 238 65 63 9 243 -4 320 -24z"/>
</g>
</svg>
