<?xml version="1.0" standalone="no"?>
<!DOCTYPE svg PUBLIC "-//W3C//DTD SVG 20010904//EN"
 "http://www.w3.org/TR/2001/REC-SVG-20010904/DTD/svg10.dtd">
<svg version="1.0" xmlns="http://www.w3.org/2000/svg"
 width="1250.000000pt" height="1250.000000pt" viewBox="0 0 1250.000000 1250.000000"
 preserveAspectRatio="xMidYMid meet">

<g transform="translate(0.000000,1250.000000) scale(0.100000,-0.100000)"
fill="#000000" stroke="none">
<path d="M1270 10554 c-61 -21 -90 -58 -90 -114 0 -30 81 -175 565 -1010 78
-135 185 -319 237 -410 52 -91 265 -460 473 -820 208 -360 535 -927 727 -1260
192 -333 359 -615 372 -628 13 -14 39 -25 62 -28 64 -8 90 17 175 167 42 74
202 350 354 614 308 532 693 1198 1440 2493 462 802 497 865 492 899 -8 45
-40 80 -86 93 -37 10 -4691 14 -4721 4z"/>
<path d="M6504 10549 c-41 -12 -74 -49 -81 -92 -5 -33 4 -53 77 -179 45 -79
209 -363 365 -633 155 -269 583 -1010 950 -1645 367 -635 735 -1274 818 -1419
109 -190 160 -269 182 -283 39 -25 99 -18 131 14 12 13 63 93 112 178 83 144
608 1054 1215 2105 998 1728 1047 1815 1047 1844 0 41 -18 77 -49 98 -25 17
-149 18 -2381 20 -1358 1 -2368 -2 -2386 -8z"/>
<path d="M6213 9440 c-28 -12 -28 -11 -316 -510 -134 -234 -445 -771 -689
-1195 -578 -1000 -595 -1030 -602 -1053 -9 -27 11 -68 41 -81 17 -8 466 -11
1598 -11 l1574 0 27 23 c18 16 27 33 27 53 0 19 -57 126 -163 309 -89 154
-247 426 -350 605 -103 179 -296 514 -430 745 -133 231 -328 569 -432 750
-105 182 -198 337 -207 346 -22 23 -51 29 -78 19z"/>
<path d="M3824 5976 c-60 -60 -57 -69 143 -415 97 -168 249 -432 338 -586 89
-154 297 -514 462 -800 165 -286 418 -725 562 -975 145 -250 280 -484 301
-520 21 -36 122 -211 225 -390 287 -497 293 -507 321 -529 39 -31 96 -28 133
7 17 15 299 493 627 1062 328 569 706 1224 839 1455 133 231 392 679 575 995
182 316 334 589 337 606 7 40 -19 89 -57 109 -26 13 -300 15 -2401 15 l-2371
0 -34 -34z"/>
</g>
</svg>
