<?xml version="1.0" standalone="no"?>
<!DOCTYPE svg PUBLIC "-//W3C//DTD SVG 20010904//EN"
 "http://www.w3.org/TR/2001/REC-SVG-20010904/DTD/svg10.dtd">
<svg version="1.0" xmlns="http://www.w3.org/2000/svg"
 width="1250.000000pt" height="1250.000000pt" viewBox="0 0 1250.000000 1250.000000"
 preserveAspectRatio="xMidYMid meet">
<metadata>
Created by potrace 1.16, written by Peter Selinger 2001-2019
</metadata>
<g transform="translate(0.000000,1250.000000) scale(0.100000,-0.100000)"
fill="#000000" stroke="none">
<path d="M6170 11398 c-40 -101 -166 -412 -280 -693 -114 -280 -271 -670 -350
-865 -79 -195 -146 -358 -150 -363 -3 -4 -186 133 -406 304 -219 172 -484 378
-589 460 -104 81 -278 216 -385 300 -107 84 -224 175 -260 203 -36 27 -87 67
-114 88 -27 21 -50 37 -52 35 -4 -3 8 -91 171 -1257 53 -377 105 -754 117
-838 11 -84 18 -155 14 -159 -3 -3 -106 8 -229 25 -122 17 -368 52 -547 77
-179 24 -583 81 -899 125 -316 44 -576 78 -579 76 -2 -3 29 -47 70 -98 41 -51
210 -266 374 -478 165 -212 445 -571 622 -798 177 -227 323 -418 325 -423 1
-6 -173 -81 -388 -168 -1306 -529 -1715 -696 -1715 -701 0 -3 341 -144 758
-313 416 -169 890 -361 1052 -427 162 -65 294 -124 292 -130 -1 -6 -114 -153
-250 -328 -329 -420 -944 -1208 -1054 -1351 -49 -62 -87 -115 -85 -117 2 -2
226 27 498 65 1527 213 1750 244 1756 238 5 -6 -103 -801 -263 -1936 -25 -173
-43 -316 -40 -318 2 -2 127 92 277 209 698 545 1457 1137 1491 1162 l37 28 14
-34 c7 -18 200 -493 427 -1056 228 -562 417 -1022 420 -1022 3 0 196 471 429
1048 233 576 427 1050 430 1054 4 4 54 -29 111 -74 58 -45 173 -134 255 -198
83 -64 317 -246 520 -405 800 -625 918 -715 921 -712 2 2 -43 339 -100 748
-57 409 -128 914 -157 1122 -29 207 -49 380 -46 384 4 3 512 -64 1129 -150
617 -86 1123 -155 1125 -153 3 3 -253 334 -880 1136 -132 170 -290 373 -434
559 -80 103 -81 106 -60 117 19 10 717 294 1662 676 149 60 305 123 348 140
42 18 77 35 77 38 0 3 -354 149 -787 325 -1287 521 -1318 534 -1315 545 1 6
98 133 215 283 117 149 334 427 482 617 148 190 365 468 482 619 118 150 212
275 210 277 -2 3 -132 -14 -288 -35 -330 -47 -1053 -148 -1587 -222 -204 -29
-375 -49 -379 -46 -6 7 11 134 207 1536 55 393 99 716 97 718 -5 4 -49 -30
-624 -479 -230 -179 -589 -459 -797 -622 -209 -163 -383 -293 -386 -289 -4 5
-101 240 -215 523 -114 283 -273 675 -352 870 -79 195 -176 435 -215 533 -40
97 -75 177 -78 177 -3 0 -39 -82 -80 -182z m464 -2533 c491 -79 900 -259 1276
-562 459 -369 787 -894 916 -1464 51 -226 59 -307 59 -594 -1 -251 -3 -281
-29 -429 -98 -562 -343 -1034 -740 -1432 -201 -200 -390 -341 -628 -468 -265
-142 -566 -239 -893 -288 -137 -20 -580 -17 -719 5 -474 76 -870 243 -1238
524 -122 92 -357 323 -452 443 -300 378 -481 802 -558 1310 -18 116 -17 566 0
685 93 617 358 1141 788 1555 410 395 943 653 1489 719 50 6 104 13 120 15 74
10 515 -3 609 -19z"/>
<path d="M6085 7904 c-192 -21 -385 -78 -570 -168 -324 -159 -586 -420 -745
-741 -79 -158 -119 -274 -152 -437 -33 -162 -32 -452 0 -616 33 -162 73 -278
152 -437 158 -320 415 -577 735 -735 158 -79 274 -119 437 -152 162 -33 452
-32 616 0 343 69 615 215 862 462 249 249 393 519 462 861 32 164 32 454 0
617 -33 162 -73 278 -152 437 -158 320 -415 577 -735 735 -248 124 -436 170
-705 175 -91 2 -183 1 -205 -1z"/>
</g>
</svg>
